# xmcd
#
# Track frame offsets:
#	150
#	13130
#	30422
#	50602
#	66760
#	86477
#	105887
#	120527
#	136622
#	150195
#	165930
#	187897
#
# Disc length: 2716 seconds
#
# Revision: 0
# Processed by: cddbd v1.5.2PL0 Copyright (c) Steve Scherf et al.
# Submitted via: EZCDAudioConverter 6.0.5.1
#
DISCID=7c0a9a0c
DTITLE=Michel Melançon et Nathalie Bergeron - Melançon/Bergeron
DYEAR=1900
DGENRE=Country
TTITLE0=Nathalie Bergeron - Coup de foudre
TTITLE1=Nathalie Bergeron - Ce n'était pas l'amour
TTITLE2=Nathalie Bergeron - Je vous aimes
TTITLE3=Michel Melançon et Nathalie Bergeron - Oublie-moi
TTITLE4=Nathalie Bergeron - Oublie
TTITLE5=Michel Melançon - C'est comme mourir un peu
TTITLE6=Michel Melançon - Un chanteur Country
TTITLE7=Nathalie Bergeron - Partir, partir
TTITLE8=Michel Melançon - Le (reel) de l'inconnu (Hommage à M. Pointu)
TTITLE9=Nathalie Bergeron - Rien a changé
TTITLE10=Michel Melançon - Si
TTITLE11=Michel Melançon - Toutes les femmes courent après moi
EXTD=
EXTT0=
EXTT1=
EXTT2=
EXTT3=
EXTT4=
EXTT5=
EXTT6=
EXTT7=
EXTT8=
EXTT9=
EXTT10=
EXTT11=
PLAYORDER=
